<svg 
    version="1.1" 
    xmlns="http://www.w3.org/2000/svg" 
    xmlns:xlink="http://www.w3.org/1999/xlink" 
    x="0px" 
    y="0px" 
    viewBox="0 0 1800 340" 
    style="enable-background:new 0 0 1800 340;" 
    xml:space="preserve"
    > 
    <style type="text/css"> 
        .bg{ 
            fill: none; /* rgba(255, 255, 255, 0.2); */
        } 
        .text{ 
            fill: #ffffff;
            stroke: none;
            stroke-miterlimit: 10;
        } 
    </style> 
    <g id="Layer_5"> 
        <path class="bg" d="M1765.2,325.3H34.8c-9.3,0-16.9-7.6-16.9-16.9V31.6c0-9.3,7.6-16.9,16.9-16.9h1730.4c9.3,0,16.9,7.6,16.9,16.9 v276.8C1782.1,317.7,1774.5,325.3,1765.2,325.3z"/> 
        <g class="text"> 
            <path d="M57.9,262.2c-1-1-1.6-2.4-1.6-3.9l0.5-2.4l62.8-168.7c1.7-4.4,4.9-6.5,9.4-6.5h28.8c4.5,0,7.7,2.2,9.4,6.5L230,255.9 l0.5,2.4c0,1.6-0.6,2.9-1.7,3.9c-1.1,1-2.4,1.6-3.8,1.6h-23.3c-3.7,0-6.2-1.7-7.6-5l-12-31.6h-77.4l-12,31.6c-1.4,3.3-3.9,5-7.6,5 H61.9C60.3,263.8,59,263.2,57.9,262.2z M113.9,196.8H173l-29.6-80.5L113.9,196.8z"/> 
            <path d="M237.8,250.7c-9.2-10.5-13.9-24.8-13.9-43.2V134c0-1.9,0.6-3.4,1.8-4.6c1.2-1.1,2.7-1.7,4.4-1.7h23.5 c1.7,0,3.2,0.6,4.4,1.8c1.2,1.2,1.8,2.7,1.8,4.4V206c0,21.4,9.3,32.2,28,32.2c9.1,0,16.3-2.9,21.6-8.6c5.3-5.8,8-13.6,8-23.5V134 c0-1.9,0.6-3.4,1.8-4.6c1.2-1.1,2.7-1.7,4.4-1.7h23.3c1.9,0,3.4,0.6,4.6,1.7c1.1,1.1,1.7,2.7,1.7,4.6v123.4c0,1.7-0.6,3.2-1.7,4.4 c-1.1,1.2-2.7,1.8-4.6,1.8h-21.7c-1.7,0-3.2-0.6-4.4-1.8c-1.2-1.2-1.8-2.7-1.8-4.4v-10.7c-9.6,13.1-24.1,19.6-43.4,19.6 C259.7,266.4,247.1,261.1,237.8,250.7z"/> 
            <path d="M380.4,260.4c-8.9-4-15.5-8.7-19.7-14c-4.3-5.3-6.4-9.9-6.4-13.7c0-1.7,0.6-3.1,1.7-4.2c1.1-1,2.5-1.6,4.1-1.6h21.4 c1.4,0,2.6,0.7,3.7,2.1c0.9,0.7,2.8,2.4,5.9,5c3,2.6,6.5,4.7,10.5,6.1c3.9,1.5,8.2,2.2,12.9,2.2c7,0,12.6-1.3,17-4.1 c4.4-2.7,6.5-6.6,6.5-11.6c0-3.5-1-6.3-3-8.5c-2-2.2-5.6-4.2-10.7-6c-5.1-1.8-12.9-3.9-23.1-6.1c-14.8-3.1-25.8-7.9-32.8-14.4 c-7.1-6.4-10.6-15-10.6-25.6c0-7,2.1-13.6,6.3-19.7c4.2-6.2,10.4-11.2,18.7-15.2c8.3-3.9,18.2-5.9,29.7-5.9 c11.9,0,22.1,1.9,30.6,5.6c8.5,3.8,15,8.2,19.5,13.5c4.4,5.2,6.7,9.9,6.7,13.9c0,1.6-0.6,2.9-1.7,4.1c-1.1,1.1-2.5,1.7-4.1,1.7 h-19.6c-1.9,0-3.4-0.7-4.4-2.1c-1.2-0.9-3.2-2.5-5.9-4.8c-2.7-2.4-5.7-4.2-9-5.6c-3.3-1.4-7.3-2.1-12-2.1 c-6.5,0-11.4,1.4-14.9,4.2c-3.5,2.8-5.2,6.5-5.2,11c0,3.1,0.8,5.8,2.5,7.8c1.7,2.1,5,4.1,10.1,5.9c5.1,1.8,12.6,3.7,22.8,5.6 c31.4,6.1,47.1,19.8,47.1,41.1c0,12.4-5.4,22.4-16.1,30.1c-10.7,7.7-25.7,11.5-44.9,11.5C400.3,266.4,389.3,264.4,380.4,260.4z"/> 
            <path d="M506.2,251.3c-8-8.3-12-20.4-12-36.5v-59.1h-20.7c-1.7,0-3.2-0.6-4.4-1.8c-1.2-1.2-1.8-2.7-1.8-4.4V134 c0-1.7,0.6-3.2,1.8-4.4c1.2-1.2,2.7-1.8,4.4-1.8h20.7V84.4c0-1.9,0.6-3.4,1.8-4.6c1.2-1.1,2.7-1.7,4.4-1.7h21.7 c1.9,0,3.4,0.6,4.6,1.7c1.1,1.1,1.7,2.7,1.7,4.6v43.4h32.7c1.7,0,3.2,0.6,4.4,1.8c1.2,1.2,1.8,2.7,1.8,4.4v15.4 c0,1.7-0.6,3.2-1.8,4.4c-1.2,1.2-2.7,1.8-4.4,1.8h-32.7V212c0,7.5,1.3,13.2,3.9,17c2.6,3.8,6.9,5.8,12.8,5.8h18.3 c1.9,0,3.4,0.6,4.6,1.7c1.1,1.1,1.7,2.7,1.7,4.6v16.5c0,1.7-0.6,3.2-1.7,4.4c-1.1,1.2-2.7,1.8-4.6,1.8H542 C526.1,263.8,514.2,259.6,506.2,251.3z"/> 
            <path d="M572.8,103.7c-1.2-1.2-1.8-2.7-1.8-4.4V80.2c0-1.9,0.6-3.5,1.8-4.7c1.2-1.2,2.7-1.8,4.4-1.8h24.1c1.9,0,3.5,0.6,4.7,1.8 c1.2,1.2,1.8,2.8,1.8,4.7v19.1c0,1.7-0.7,3.2-2,4.4c-1.3,1.2-2.8,1.8-4.6,1.8h-24.1C575.5,105.5,574.1,104.9,572.8,103.7z M573.9,261.9c-1.2-1.2-1.8-2.7-1.8-4.4V134c0-1.9,0.6-3.4,1.8-4.6c1.2-1.1,2.7-1.7,4.4-1.7h22.2c1.7,0,3.2,0.6,4.4,1.8 c1.2,1.2,1.8,2.7,1.8,4.4v123.4c0,1.7-0.6,3.2-1.8,4.4c-1.2,1.2-2.7,1.8-4.4,1.8h-22.2C576.6,263.8,575.1,263.1,573.9,261.9z"/> 
            <path d="M616,261.9c-1.2-1.2-1.8-2.7-1.8-4.4V134c0-1.9,0.6-3.4,1.8-4.6c1.2-1.1,2.7-1.7,4.4-1.7h21.7c1.9,0,3.4,0.6,4.6,1.7 c1.1,1.1,1.7,2.7,1.7,4.6v10.7c10.6-13.1,25.2-19.6,43.7-19.6c16,0,28.8,5.2,38.2,15.7c9.4,10.5,14.1,24.8,14.1,43.2v73.5 c0,1.7-0.6,3.2-1.7,4.4c-1.1,1.2-2.7,1.8-4.6,1.8h-23.5c-1.7,0-3.2-0.6-4.4-1.8c-1.2-1.2-1.8-2.7-1.8-4.4v-71.9 c0-10.1-2.5-18-7.5-23.7c-5-5.7-12.1-8.5-21.3-8.5c-8.9,0-16,2.9-21.4,8.6c-5.4,5.8-8.1,13.6-8.1,23.5v71.9c0,1.7-0.6,3.2-1.7,4.4 c-1.1,1.2-2.7,1.8-4.6,1.8h-23.3C618.7,263.8,617.2,263.1,616,261.9z"/> 
            <path d="M756.4,261.9c-1.2-1.2-1.8-2.7-1.8-4.4V87.2c0-1.9,0.6-3.5,1.7-4.7c1.1-1.2,2.7-1.8,4.6-1.8H831c21.1,0,37.7,5,49.7,14.9 c12,9.9,18,24.4,18,43.4c0,18.8-6,33.1-18,42.8c-12,9.7-28.6,14.5-49.7,14.5h-38.4v61.2c0,1.9-0.6,3.4-1.8,4.6 c-1.2,1.1-2.8,1.7-4.7,1.7h-25.1C759.1,263.8,757.7,263.1,756.4,261.9z M829.7,167c10.1,0,17.8-2.4,23.1-7.2 c5.3-4.8,8-11.8,8-21.1c0-9.1-2.6-16.1-7.7-21.2c-5.1-5.1-12.9-7.6-23.4-7.6H792v57H829.7z"/> 
            <path d="M913.1,250.7c-11.2-10.5-17.2-24.9-18-43.4l-0.3-11.5l0.3-11.5c0.9-18.3,7-32.7,18.3-43.3c11.3-10.5,27.1-15.8,47.3-15.8 c20,0,35.7,5.3,47.1,15.8c11.3,10.6,17.4,25,18.3,43.3c0.2,2.1,0.3,5.9,0.3,11.5c0,5.6-0.1,9.4-0.3,11.5c-0.9,18.5-6.9,33-18,43.4 c-11.2,10.5-26.9,15.7-47.3,15.7C940.1,266.4,924.2,261.1,913.1,250.7z M982,231.3c5-5.8,7.6-14.2,8-25.4 c0.2-1.7,0.3-5.1,0.3-10.2c0-5.1-0.1-8.5-0.3-10.2c-0.4-11.2-3.1-19.7-8.1-25.5c-5.1-5.8-12.1-8.8-21.2-8.8 c-9.2,0-16.4,2.9-21.4,8.8c-5.1,5.8-7.8,14.3-8.1,25.5l-0.3,10.2l0.3,10.2c0.3,11.2,3,19.6,8.1,25.4c5.1,5.8,12.2,8.6,21.4,8.6 C969.9,240,977,237.1,982,231.3z"/> 
            <path d="M1049.9,250.7c-11.2-10.5-17.2-24.9-18-43.4l-0.3-11.5l0.3-11.5c0.9-18.3,7-32.7,18.3-43.3c11.3-10.5,27.1-15.8,47.3-15.8 c20,0,35.7,5.3,47.1,15.8c11.3,10.6,17.4,25,18.3,43.3c0.2,2.1,0.3,5.9,0.3,11.5c0,5.6-0.1,9.4-0.3,11.5c-0.9,18.5-6.9,33-18,43.4 c-11.2,10.5-26.9,15.7-47.3,15.7C1076.9,266.4,1061,261.1,1049.9,250.7z M1118.8,231.3c5-5.8,7.6-14.2,8-25.4 c0.2-1.7,0.3-5.1,0.3-10.2c0-5.1-0.1-8.5-0.3-10.2c-0.4-11.2-3.1-19.7-8.1-25.5c-5.1-5.8-12.1-8.8-21.2-8.8 c-9.2,0-16.4,2.9-21.4,8.8c-5.1,5.8-7.8,14.3-8.1,25.5l-0.3,10.2l0.3,10.2c0.3,11.2,3,19.6,8.1,25.4c5.1,5.8,12.2,8.6,21.4,8.6 C1106.7,240,1113.8,237.1,1118.8,231.3z"/> 
            <path d="M1175.6,261.9c-1.2-1.2-1.8-2.7-1.8-4.4V134.3c0-1.9,0.6-3.5,1.8-4.7c1.2-1.2,2.7-1.8,4.4-1.8h21.4c1.9,0,3.5,0.6,4.7,1.8 c1.2,1.2,1.8,2.8,1.8,4.7V145c8.7-11.5,21.3-17.3,37.7-17.3h11c1.9,0,3.4,0.6,4.6,1.7c1.1,1.1,1.7,2.7,1.7,4.6v19.1 c0,1.7-0.6,3.2-1.7,4.4c-1.1,1.2-2.7,1.8-4.6,1.8H1236c-8.2,0-14.6,2.4-19.4,7.1c-4.7,4.7-7.1,11.2-7.1,19.4v71.7 c0,1.7-0.6,3.2-1.8,4.4c-1.2,1.2-2.7,1.8-4.4,1.8h-23.3C1178.3,263.8,1176.9,263.1,1175.6,261.9z"/> 
            <path d="M1236.6,261.9c-1.2-1.2-1.8-2.7-1.8-4.4v-26.4c0-1.7,0.6-3.2,1.8-4.4c1.2-1.2,2.7-1.8,4.4-1.8h26.4c1.7,0,3.2,0.6,4.4,1.8 c1.2,1.2,1.8,2.7,1.8,4.4v26.4c0,1.7-0.6,3.2-1.7,4.4c-1.1,1.2-2.7,1.8-4.6,1.8H1241C1239.3,263.8,1237.8,263.1,1236.6,261.9z"/> 
            <path d="M1293.4,250.4c-11.4-10.6-17.5-25.4-18.2-44.2l-0.3-10.5l0.3-10.5c0.7-18.8,6.8-33.6,18.2-44.2c11.4-10.6,26.7-16,45.9-16 c13.8,0,25.4,2.4,34.9,7.3c9.5,4.9,16.6,10.9,21.2,17.9c4.6,7.1,7.1,13.8,7.5,20.3c0.2,1.7-0.4,3.2-1.7,4.4 c-1.3,1.2-2.8,1.8-4.6,1.8h-23.3c-1.9,0-3.3-0.4-4.2-1.2c-0.9-0.8-1.7-2.2-2.6-4.3c-2.6-6.6-6.1-11.4-10.3-14.4 c-4.3-3-9.7-4.4-16.3-4.4c-8.9,0-15.8,2.8-20.8,8.4c-5,5.6-7.6,14.1-8,25.6l-0.3,9.7l0.3,8.6c1,22.7,10.6,34,28.8,34 c6.8,0,12.3-1.4,16.5-4.3c4.2-2.9,7.6-7.7,10.2-14.5c0.7-1.9,1.5-3.3,2.5-4.2c1-0.9,2.4-1.3,4.3-1.3h23.3c1.7,0,3.3,0.6,4.6,1.8 c1.3,1.2,1.9,2.7,1.7,4.4c-0.4,6.1-2.8,12.7-7.3,19.7c-4.5,7.1-11.5,13.1-20.9,18.2c-9.4,5.1-21.2,7.6-35.3,7.6 C1320.2,266.4,1304.9,261.1,1293.4,250.4z"/> 
            <path d="M1422,250.7c-11.2-10.5-17.2-24.9-18-43.4l-0.3-11.5l0.3-11.5c0.9-18.3,7-32.7,18.3-43.3c11.3-10.5,27.1-15.8,47.3-15.8 c20,0,35.7,5.3,47.1,15.8c11.3,10.6,17.4,25,18.3,43.3c0.2,2.1,0.3,5.9,0.3,11.5c0,5.6-0.1,9.4-0.3,11.5c-0.9,18.5-6.9,33-18,43.4 c-11.2,10.5-26.9,15.7-47.3,15.7C1449,266.4,1433.1,261.1,1422,250.7z M1490.9,231.3c5-5.8,7.6-14.2,8-25.4 c0.2-1.7,0.3-5.1,0.3-10.2c0-5.1-0.1-8.5-0.3-10.2c-0.4-11.2-3.1-19.7-8.1-25.5c-5.1-5.8-12.1-8.8-21.2-8.8 c-9.2,0-16.4,2.9-21.4,8.8c-5.1,5.8-7.8,14.3-8.1,25.5l-0.3,10.2l0.3,10.2c0.3,11.2,3,19.6,8.1,25.4c5.1,5.8,12.2,8.6,21.4,8.6 S1485.9,237.1,1490.9,231.3z"/> 
            <path d="M1542.5,261.9c-1.2-1.2-1.8-2.7-1.8-4.4V134c0-1.9,0.6-3.4,1.8-4.6c1.2-1.1,2.7-1.7,4.4-1.7h20.7c1.9,0,3.4,0.6,4.6,1.7 c1.1,1.1,1.7,2.7,1.7,4.6v8.9c9.4-11.9,22.1-17.8,37.9-17.8c19.4,0,32.9,7.8,40.5,23.3c4.2-7,10.1-12.6,17.8-16.9 c7.7-4.3,16-6.4,24.8-6.4c14.3,0,26,4.9,35,14.6c9.1,9.8,13.6,24,13.6,42.6v75.1c0,1.7-0.6,3.2-1.7,4.4c-1.1,1.2-2.7,1.8-4.6,1.8 h-21.7c-1.7,0-3.2-0.6-4.4-1.8c-1.2-1.2-1.8-2.7-1.8-4.4v-73c0-11-2.3-18.9-6.9-23.8c-4.6-4.9-10.7-7.3-18.2-7.3 c-6.8,0-12.6,2.5-17.4,7.5c-4.8,5-7.2,12.9-7.2,23.7v73c0,1.7-0.6,3.2-1.7,4.4c-1.1,1.2-2.7,1.8-4.6,1.8h-22 c-1.7,0-3.2-0.6-4.4-1.8c-1.2-1.2-1.8-2.7-1.8-4.4v-73c0-10.8-2.4-18.7-7.1-23.7c-4.7-5-10.7-7.5-18-7.5c-6.8,0-12.6,2.5-17.4,7.5 c-4.8,5-7.2,12.9-7.2,23.7v73c0,1.7-0.6,3.2-1.7,4.4c-1.1,1.2-2.7,1.8-4.6,1.8H1547C1545.2,263.8,1543.8,263.1,1542.5,261.9z"/> 
        </g> 
    </g> 
</svg>